<mxfile host="app.diagrams.net" agent="Mozilla/5.0 (X11; Linux x86_64) AppleWebKit/537.36 (KHTML, like Gecko) Chrome/135.0.0.0 Safari/537.36" version="26.2.14">
  <diagram name="Page-1" id="LX4Sn0mHj77NH7_ibuyS">
    <mxGraphModel grid="1" page="1" gridSize="10" guides="1" tooltips="1" connect="1" arrows="1" fold="1" pageScale="1" pageWidth="827" pageHeight="1169" math="0" shadow="0">
      <root>
        <mxCell id="0" />
        <mxCell id="1" parent="0" />
        <mxCell id="b8iPerJjnpC8pXsVi7EM-1" style="edgeStyle=orthogonalEdgeStyle;rounded=0;orthogonalLoop=1;jettySize=auto;html=1;exitX=1;exitY=0.5;exitDx=0;exitDy=0;entryX=0;entryY=0.5;entryDx=0;entryDy=0;fontSize=13;" edge="1" parent="1" source="NJQ50yTcGHKG_bH19zUe-1" target="NJQ50yTcGHKG_bH19zUe-2">
          <mxGeometry relative="1" as="geometry" />
        </mxCell>
        <mxCell id="NJQ50yTcGHKG_bH19zUe-1" value="" style="ellipse;html=1;shape=startState;fillColor=#000000;strokeColor=#ff0000;fontSize=13;" vertex="1" parent="1">
          <mxGeometry x="-1310" y="315" width="30" height="30" as="geometry" />
        </mxCell>
        <mxCell id="NJQ50yTcGHKG_bH19zUe-2" value="&lt;b&gt;Panier validé&lt;/b&gt;" style="rounded=1;whiteSpace=wrap;html=1;fontSize=13;" vertex="1" parent="1">
          <mxGeometry x="-1140" y="300" width="120" height="60" as="geometry" />
        </mxCell>
        <mxCell id="NJQ50yTcGHKG_bH19zUe-3" value="&lt;b&gt;Saisie des informations de paiement&lt;/b&gt;" style="rounded=1;whiteSpace=wrap;html=1;fontSize=13;" vertex="1" parent="1">
          <mxGeometry x="-641" y="300" width="120" height="60" as="geometry" />
        </mxCell>
        <mxCell id="NJQ50yTcGHKG_bH19zUe-4" value="&lt;b&gt;Vérification du paiement&lt;/b&gt;" style="rounded=1;whiteSpace=wrap;html=1;fontSize=13;" vertex="1" parent="1">
          <mxGeometry x="-401" y="300" width="120" height="60" as="geometry" />
        </mxCell>
        <mxCell id="NJQ50yTcGHKG_bH19zUe-5" value="&lt;b&gt;Paiement accepté&lt;/b&gt;" style="rounded=1;whiteSpace=wrap;html=1;fontSize=13;" vertex="1" parent="1">
          <mxGeometry x="-120" y="370" width="120" height="60" as="geometry" />
        </mxCell>
        <mxCell id="NJQ50yTcGHKG_bH19zUe-6" value="&lt;b&gt;Paiement refusé&lt;/b&gt;" style="rounded=1;whiteSpace=wrap;html=1;fontSize=13;" vertex="1" parent="1">
          <mxGeometry x="-401" y="504" width="123" height="61" as="geometry" />
        </mxCell>
        <mxCell id="NJQ50yTcGHKG_bH19zUe-7" value="&lt;b&gt;Abandonné&lt;/b&gt;" style="rounded=1;whiteSpace=wrap;html=1;fontSize=13;" vertex="1" parent="1">
          <mxGeometry x="-401" y="655" width="120" height="60" as="geometry" />
        </mxCell>
        <mxCell id="NJQ50yTcGHKG_bH19zUe-8" value="&lt;b&gt;Commande confirmée&lt;/b&gt;" style="rounded=1;whiteSpace=wrap;html=1;fontSize=13;" vertex="1" parent="1">
          <mxGeometry x="-131" y="650" width="120" height="60" as="geometry" />
        </mxCell>
        <mxCell id="NJQ50yTcGHKG_bH19zUe-9" value="" style="ellipse;html=1;shape=endState;fillColor=#000000;strokeColor=#ff0000;fontSize=13;" vertex="1" parent="1">
          <mxGeometry x="-86" y="790" width="30" height="30" as="geometry" />
        </mxCell>
        <mxCell id="NJQ50yTcGHKG_bH19zUe-10" value="" style="endArrow=open;endFill=1;endSize=12;html=1;rounded=0;exitX=1;exitY=0.5;exitDx=0;exitDy=0;entryX=0;entryY=0.5;entryDx=0;entryDy=0;fontSize=13;" edge="1" parent="1" target="NJQ50yTcGHKG_bH19zUe-18" source="NJQ50yTcGHKG_bH19zUe-2">
          <mxGeometry width="160" relative="1" as="geometry">
            <mxPoint x="-981" y="330" as="sourcePoint" />
            <mxPoint x="-860" y="330" as="targetPoint" />
          </mxGeometry>
        </mxCell>
        <mxCell id="NJQ50yTcGHKG_bH19zUe-11" value="" style="endArrow=open;endFill=1;endSize=12;html=1;rounded=0;exitX=1;exitY=0.5;exitDx=0;exitDy=0;fontSize=13;" edge="1" parent="1">
          <mxGeometry width="160" relative="1" as="geometry">
            <mxPoint x="-521" y="330" as="sourcePoint" />
            <mxPoint x="-401" y="330" as="targetPoint" />
          </mxGeometry>
        </mxCell>
        <mxCell id="NJQ50yTcGHKG_bH19zUe-12" value="" style="endArrow=open;endFill=1;endSize=12;html=1;rounded=0;exitX=0.5;exitY=1;exitDx=0;exitDy=0;fontSize=13;" edge="1" parent="1" source="NJQ50yTcGHKG_bH19zUe-8">
          <mxGeometry width="160" relative="1" as="geometry">
            <mxPoint x="245" y="730" as="sourcePoint" />
            <mxPoint x="-71" y="790" as="targetPoint" />
          </mxGeometry>
        </mxCell>
        <mxCell id="NJQ50yTcGHKG_bH19zUe-13" value="" style="endArrow=open;endFill=1;endSize=12;html=1;rounded=0;entryX=0;entryY=0.5;entryDx=0;entryDy=0;exitX=1;exitY=0.5;exitDx=0;exitDy=0;fontSize=13;" edge="1" parent="1" source="NJQ50yTcGHKG_bH19zUe-7" target="NJQ50yTcGHKG_bH19zUe-9">
          <mxGeometry width="160" relative="1" as="geometry">
            <mxPoint x="-392" y="770" as="sourcePoint" />
            <mxPoint x="-111" y="810" as="targetPoint" />
          </mxGeometry>
        </mxCell>
        <mxCell id="NJQ50yTcGHKG_bH19zUe-14" value="" style="endArrow=open;endFill=1;endSize=12;html=1;rounded=0;exitX=0.5;exitY=1;exitDx=0;exitDy=0;entryX=0.507;entryY=0.189;entryDx=0;entryDy=0;entryPerimeter=0;fontSize=13;" edge="1" parent="1" source="NJQ50yTcGHKG_bH19zUe-4" target="NJQ50yTcGHKG_bH19zUe-15">
          <mxGeometry width="160" relative="1" as="geometry">
            <mxPoint x="-278" y="330" as="sourcePoint" />
            <mxPoint x="-158" y="330" as="targetPoint" />
          </mxGeometry>
        </mxCell>
        <mxCell id="NJQ50yTcGHKG_bH19zUe-15" value="" style="ellipse;html=1;shape=startState;fillColor=#000000;strokeColor=#ff0000;fontSize=13;" vertex="1" parent="1">
          <mxGeometry x="-356" y="387" width="30" height="30" as="geometry" />
        </mxCell>
        <mxCell id="NJQ50yTcGHKG_bH19zUe-16" value="" style="endArrow=open;endFill=1;endSize=12;html=1;rounded=0;exitX=0.833;exitY=0.505;exitDx=0;exitDy=0;exitPerimeter=0;fontSize=13;" edge="1" parent="1" source="NJQ50yTcGHKG_bH19zUe-15">
          <mxGeometry width="160" relative="1" as="geometry">
            <mxPoint x="-319" y="402" as="sourcePoint" />
            <mxPoint x="-120" y="402" as="targetPoint" />
          </mxGeometry>
        </mxCell>
        <mxCell id="NJQ50yTcGHKG_bH19zUe-17" value="" style="endArrow=open;endFill=1;endSize=12;html=1;rounded=0;exitX=0.5;exitY=0.95;exitDx=0;exitDy=0;exitPerimeter=0;fontSize=13;" edge="1" parent="1">
          <mxGeometry width="160" relative="1" as="geometry">
            <mxPoint x="-341" y="414.5" as="sourcePoint" />
            <mxPoint x="-341" y="501" as="targetPoint" />
          </mxGeometry>
        </mxCell>
        <mxCell id="NJQ50yTcGHKG_bH19zUe-18" value="&lt;b&gt;Choix du paiement&lt;/b&gt;" style="rounded=1;whiteSpace=wrap;html=1;fontSize=13;" vertex="1" parent="1">
          <mxGeometry x="-865" y="299" width="120" height="60" as="geometry" />
        </mxCell>
        <mxCell id="NJQ50yTcGHKG_bH19zUe-19" value="" style="endArrow=open;endFill=1;endSize=12;html=1;rounded=0;exitX=0.998;exitY=0.683;exitDx=0;exitDy=0;exitPerimeter=0;fontSize=13;" edge="1" parent="1" source="NJQ50yTcGHKG_bH19zUe-18">
          <mxGeometry width="160" relative="1" as="geometry">
            <mxPoint x="-740" y="340" as="sourcePoint" />
            <mxPoint x="-640" y="340" as="targetPoint" />
          </mxGeometry>
        </mxCell>
        <mxCell id="NJQ50yTcGHKG_bH19zUe-21" value="" style="endArrow=open;endFill=1;endSize=12;html=1;rounded=0;entryX=0.5;entryY=0;entryDx=0;entryDy=0;exitX=0.5;exitY=1;exitDx=0;exitDy=0;fontSize=13;" edge="1" parent="1">
          <mxGeometry width="160" relative="1" as="geometry">
            <mxPoint x="-343" y="565" as="sourcePoint" />
            <mxPoint x="-343" y="656" as="targetPoint" />
          </mxGeometry>
        </mxCell>
        <mxCell id="NJQ50yTcGHKG_bH19zUe-22" value="" style="endArrow=open;endFill=1;endSize=12;html=1;rounded=0;exitX=0.5;exitY=1;exitDx=0;exitDy=0;entryX=0.589;entryY=0.014;entryDx=0;entryDy=0;entryPerimeter=0;fontSize=13;" edge="1" parent="1">
          <mxGeometry width="160" relative="1" as="geometry">
            <mxPoint x="-64" y="431" as="sourcePoint" />
            <mxPoint x="-63.31999999999971" y="650.8399999999999" as="targetPoint" />
          </mxGeometry>
        </mxCell>
        <mxCell id="NJQ50yTcGHKG_bH19zUe-23" value="" style="endArrow=open;endFill=1;endSize=12;html=1;rounded=0;entryX=0.5;entryY=1;entryDx=0;entryDy=0;exitX=0;exitY=0.5;exitDx=0;exitDy=0;fontSize=13;" edge="1" parent="1" source="NJQ50yTcGHKG_bH19zUe-6" target="NJQ50yTcGHKG_bH19zUe-3">
          <mxGeometry width="160" relative="1" as="geometry">
            <mxPoint x="-420" y="497" as="sourcePoint" />
            <mxPoint x="-581" y="437" as="targetPoint" />
          </mxGeometry>
        </mxCell>
        <mxCell id="NJQ50yTcGHKG_bH19zUe-24" value="" style="endArrow=open;endFill=1;endSize=12;html=1;rounded=0;exitX=0.5;exitY=1;exitDx=0;exitDy=0;entryX=0;entryY=0.5;entryDx=0;entryDy=0;fontSize=13;" edge="1" parent="1" source="NJQ50yTcGHKG_bH19zUe-2" target="NJQ50yTcGHKG_bH19zUe-7">
          <mxGeometry width="160" relative="1" as="geometry">
            <mxPoint x="-1041" y="437" as="sourcePoint" />
            <mxPoint x="-210" y="687" as="targetPoint" />
          </mxGeometry>
        </mxCell>
        <mxCell id="NJQ50yTcGHKG_bH19zUe-25" value="" style="endArrow=open;endFill=1;endSize=12;html=1;rounded=0;exitX=-0.002;exitY=0.341;exitDx=0;exitDy=0;entryX=0.99;entryY=0.341;entryDx=0;entryDy=0;entryPerimeter=0;exitPerimeter=0;fontSize=13;" edge="1" parent="1" source="NJQ50yTcGHKG_bH19zUe-3" target="NJQ50yTcGHKG_bH19zUe-18">
          <mxGeometry width="160" relative="1" as="geometry">
            <mxPoint x="-736.9200000000001" y="321.5799999999999" as="sourcePoint" />
            <mxPoint x="-630" y="320" as="targetPoint" />
          </mxGeometry>
        </mxCell>
        <mxCell id="NJQ50yTcGHKG_bH19zUe-26" value="&lt;b&gt;Confirmation du panier&lt;/b&gt;" style="text;html=1;align=center;verticalAlign=middle;resizable=0;points=[];autosize=1;strokeColor=none;fillColor=none;fontSize=13;" vertex="1" parent="1">
          <mxGeometry x="-1295" y="273" width="170" height="30" as="geometry" />
        </mxCell>
        <mxCell id="NJQ50yTcGHKG_bH19zUe-27" value="&lt;b&gt;Continuer vers le paiement&lt;/b&gt;" style="text;html=1;align=center;verticalAlign=middle;resizable=0;points=[];autosize=1;strokeColor=none;fillColor=none;fontSize=13;" vertex="1" parent="1">
          <mxGeometry x="-1022" y="267" width="190" height="30" as="geometry" />
        </mxCell>
        <mxCell id="NJQ50yTcGHKG_bH19zUe-28" value="&lt;b&gt;Choix de la méthode de paiement&lt;/b&gt;" style="text;html=1;align=center;verticalAlign=middle;resizable=0;points=[];autosize=1;strokeColor=none;fillColor=none;fontSize=13;" vertex="1" parent="1">
          <mxGeometry x="-808" y="367" width="230" height="30" as="geometry" />
        </mxCell>
        <mxCell id="NJQ50yTcGHKG_bH19zUe-29" value="&lt;b&gt;Retour&lt;/b&gt;" style="text;html=1;align=center;verticalAlign=middle;resizable=0;points=[];autosize=1;strokeColor=none;fillColor=none;fontSize=13;" vertex="1" parent="1">
          <mxGeometry x="-726" y="283" width="70" height="30" as="geometry" />
        </mxCell>
        <mxCell id="NJQ50yTcGHKG_bH19zUe-30" value="&lt;b&gt;Soumettre les informations&lt;/b&gt;" style="text;html=1;align=center;verticalAlign=middle;resizable=0;points=[];autosize=1;strokeColor=none;fillColor=none;fontSize=13;" vertex="1" parent="1">
          <mxGeometry x="-560" y="261" width="190" height="30" as="geometry" />
        </mxCell>
        <mxCell id="NJQ50yTcGHKG_bH19zUe-31" value="&lt;b&gt;Message de confirmation envoyé&amp;nbsp;&lt;/b&gt;" style="text;html=1;align=center;verticalAlign=middle;resizable=0;points=[];autosize=1;strokeColor=none;fillColor=none;fontSize=13;" vertex="1" parent="1">
          <mxGeometry x="-61" y="740" width="230" height="30" as="geometry" />
        </mxCell>
        <mxCell id="NJQ50yTcGHKG_bH19zUe-32" value="&lt;b&gt;Annuler&lt;/b&gt;" style="text;html=1;align=center;verticalAlign=middle;resizable=0;points=[];autosize=1;strokeColor=none;fillColor=none;fontSize=13;" vertex="1" parent="1">
          <mxGeometry x="-770" y="530" width="70" height="30" as="geometry" />
        </mxCell>
        <mxCell id="NJQ50yTcGHKG_bH19zUe-33" value="&lt;b&gt;Annuler&lt;/b&gt;" style="text;html=1;align=center;verticalAlign=middle;resizable=0;points=[];autosize=1;strokeColor=none;fillColor=none;fontSize=13;" vertex="1" parent="1">
          <mxGeometry x="-338" y="595" width="70" height="30" as="geometry" />
        </mxCell>
        <mxCell id="NJQ50yTcGHKG_bH19zUe-34" value="&lt;b&gt;Réessayer&lt;/b&gt;" style="text;html=1;align=center;verticalAlign=middle;resizable=0;points=[];autosize=1;strokeColor=none;fillColor=none;fontSize=13;" vertex="1" parent="1">
          <mxGeometry x="-570" y="460" width="90" height="30" as="geometry" />
        </mxCell>
        <mxCell id="NJQ50yTcGHKG_bH19zUe-35" value="&lt;b&gt;Enregistrement de la commande&lt;/b&gt;" style="text;html=1;align=center;verticalAlign=middle;resizable=0;points=[];autosize=1;strokeColor=none;fillColor=none;fontSize=13;" vertex="1" parent="1">
          <mxGeometry x="-65" y="535" width="220" height="30" as="geometry" />
        </mxCell>
        <mxCell id="NJQ50yTcGHKG_bH19zUe-36" value="&lt;b&gt;[Vérification réussie]&lt;/b&gt;" style="text;html=1;align=center;verticalAlign=middle;resizable=0;points=[];autosize=1;strokeColor=none;fillColor=none;fontSize=13;" vertex="1" parent="1">
          <mxGeometry x="-291" y="363" width="150" height="30" as="geometry" />
        </mxCell>
        <mxCell id="NJQ50yTcGHKG_bH19zUe-37" value="&lt;b&gt;[Échec de la vérification]&lt;/b&gt;" style="text;html=1;align=center;verticalAlign=middle;resizable=0;points=[];autosize=1;strokeColor=none;fillColor=none;fontSize=13;" vertex="1" parent="1">
          <mxGeometry x="-341" y="440" width="180" height="30" as="geometry" />
        </mxCell>
        <mxCell id="NJQ50yTcGHKG_bH19zUe-38" value="&lt;b&gt;Fin du processus&lt;/b&gt;" style="text;html=1;align=center;verticalAlign=middle;resizable=0;points=[];autosize=1;strokeColor=none;fillColor=none;fontSize=13;" vertex="1" parent="1">
          <mxGeometry x="-307" y="752" width="130" height="30" as="geometry" />
        </mxCell>
      </root>
    </mxGraphModel>
  </diagram>
</mxfile>
